<mxfile modified="2024-01-21T17:13:17.406Z" host="Electron" agent="Mozilla/5.0 (Windows NT 10.0; Win64; x64) AppleWebKit/537.36 (KHTML, like Gecko) draw.io/22.1.21 Chrome/120.0.6099.109 Electron/28.1.0 Safari/537.36" etag="o6-aR31c6k7s_YZVgpbT" version="22.1.21" type="device">
  <diagram id="Ht1M8jgEwFfnCIfOTk4-" name="Page-1">
    <mxGraphModel dx="868" dy="1849" grid="1" gridSize="10" guides="1" tooltips="1" connect="1" arrows="1" fold="1" page="1" pageScale="1" pageWidth="1169" pageHeight="827" math="0" shadow="0">
      <root>
        <mxCell id="0" />
        <mxCell id="1" parent="0" />
        <mxCell id="ARf84FgYOcT5vbnDHxGA-6" value="Server" style="swimlane;whiteSpace=wrap;html=1;" parent="1" vertex="1">
          <mxGeometry x="450" y="-808" width="530" height="470" as="geometry">
            <mxRectangle x="405" y="-808" width="140" height="30" as="alternateBounds" />
          </mxGeometry>
        </mxCell>
        <mxCell id="ARf84FgYOcT5vbnDHxGA-1" value="Credentials" style="verticalLabelPosition=bottom;aspect=fixed;html=1;shape=mxgraph.salesforce.data;" parent="ARf84FgYOcT5vbnDHxGA-6" vertex="1">
          <mxGeometry x="465" y="319" width="42.93" height="53" as="geometry" />
        </mxCell>
        <mxCell id="ARf84FgYOcT5vbnDHxGA-2" value="Ranks" style="verticalLabelPosition=bottom;aspect=fixed;html=1;shape=mxgraph.salesforce.data;" parent="ARf84FgYOcT5vbnDHxGA-6" vertex="1">
          <mxGeometry x="465" y="48" width="48.6" height="60" as="geometry" />
        </mxCell>
        <mxCell id="ARf84FgYOcT5vbnDHxGA-3" value="Tokens" style="verticalLabelPosition=bottom;aspect=fixed;html=1;shape=mxgraph.salesforce.data;" parent="ARf84FgYOcT5vbnDHxGA-6" vertex="1">
          <mxGeometry x="465" y="180" width="48.6" height="60" as="geometry" />
        </mxCell>
        <mxCell id="ARf84FgYOcT5vbnDHxGA-11" value="Ranks resolver" style="rounded=1;whiteSpace=wrap;html=1;" parent="ARf84FgYOcT5vbnDHxGA-6" vertex="1">
          <mxGeometry x="310" y="66" width="120" height="60" as="geometry" />
        </mxCell>
        <mxCell id="ARf84FgYOcT5vbnDHxGA-13" value="Command resolver" style="rounded=1;whiteSpace=wrap;html=1;" parent="ARf84FgYOcT5vbnDHxGA-6" vertex="1">
          <mxGeometry x="310" y="320" width="120" height="60" as="geometry" />
        </mxCell>
        <mxCell id="ARf84FgYOcT5vbnDHxGA-14" value="Request resolver" style="rounded=1;whiteSpace=wrap;html=1;" parent="ARf84FgYOcT5vbnDHxGA-6" vertex="1">
          <mxGeometry x="70" y="220" width="120" height="60" as="geometry" />
        </mxCell>
        <mxCell id="ARf84FgYOcT5vbnDHxGA-12" value="Auth resolver" style="rounded=1;whiteSpace=wrap;html=1;arcSize=17;" parent="ARf84FgYOcT5vbnDHxGA-6" vertex="1">
          <mxGeometry x="310" y="220" width="120" height="60" as="geometry" />
        </mxCell>
        <mxCell id="O7wRp2Qk0xSphGMLsmgk-9" value="" style="endArrow=classic;startArrow=classic;html=1;rounded=0;entryX=0;entryY=0.25;entryDx=0;entryDy=0;exitX=1;exitY=0.25;exitDx=0;exitDy=0;" parent="ARf84FgYOcT5vbnDHxGA-6" source="ARf84FgYOcT5vbnDHxGA-14" target="ARf84FgYOcT5vbnDHxGA-12" edge="1">
          <mxGeometry width="50" height="50" relative="1" as="geometry">
            <mxPoint x="170" y="230" as="sourcePoint" />
            <mxPoint x="220" y="180" as="targetPoint" />
          </mxGeometry>
        </mxCell>
        <mxCell id="O7wRp2Qk0xSphGMLsmgk-10" value="" style="endArrow=classic;startArrow=classic;html=1;rounded=0;entryX=0;entryY=0.5;entryDx=0;entryDy=0;exitX=1;exitY=0;exitDx=0;exitDy=0;" parent="ARf84FgYOcT5vbnDHxGA-6" source="ARf84FgYOcT5vbnDHxGA-14" target="ARf84FgYOcT5vbnDHxGA-11" edge="1">
          <mxGeometry width="50" height="50" relative="1" as="geometry">
            <mxPoint x="130" y="160" as="sourcePoint" />
            <mxPoint x="180" y="110" as="targetPoint" />
          </mxGeometry>
        </mxCell>
        <mxCell id="O7wRp2Qk0xSphGMLsmgk-11" value="" style="endArrow=classic;startArrow=classic;html=1;rounded=0;exitX=1;exitY=1;exitDx=0;exitDy=0;entryX=0;entryY=0.5;entryDx=0;entryDy=0;" parent="ARf84FgYOcT5vbnDHxGA-6" source="ARf84FgYOcT5vbnDHxGA-14" target="ARf84FgYOcT5vbnDHxGA-13" edge="1">
          <mxGeometry width="50" height="50" relative="1" as="geometry">
            <mxPoint x="220" y="410" as="sourcePoint" />
            <mxPoint x="270" y="360" as="targetPoint" />
          </mxGeometry>
        </mxCell>
        <mxCell id="O7wRp2Qk0xSphGMLsmgk-12" value="" style="endArrow=classic;startArrow=classic;html=1;rounded=0;entryX=0.019;entryY=0.583;entryDx=0;entryDy=0;entryPerimeter=0;exitX=1;exitY=0.5;exitDx=0;exitDy=0;" parent="ARf84FgYOcT5vbnDHxGA-6" source="ARf84FgYOcT5vbnDHxGA-11" target="ARf84FgYOcT5vbnDHxGA-2" edge="1">
          <mxGeometry width="50" height="50" relative="1" as="geometry">
            <mxPoint x="450" y="160" as="sourcePoint" />
            <mxPoint x="500" y="110" as="targetPoint" />
          </mxGeometry>
        </mxCell>
        <mxCell id="O7wRp2Qk0xSphGMLsmgk-13" value="" style="endArrow=classic;startArrow=classic;html=1;rounded=0;exitX=1.018;exitY=0.107;exitDx=0;exitDy=0;exitPerimeter=0;entryX=0.1;entryY=0.522;entryDx=0;entryDy=0;entryPerimeter=0;" parent="ARf84FgYOcT5vbnDHxGA-6" source="ARf84FgYOcT5vbnDHxGA-12" target="ARf84FgYOcT5vbnDHxGA-3" edge="1">
          <mxGeometry width="50" height="50" relative="1" as="geometry">
            <mxPoint x="460" y="260" as="sourcePoint" />
            <mxPoint x="510" y="210" as="targetPoint" />
          </mxGeometry>
        </mxCell>
        <mxCell id="O7wRp2Qk0xSphGMLsmgk-14" value="" style="endArrow=classic;startArrow=classic;html=1;rounded=0;exitX=1;exitY=0.75;exitDx=0;exitDy=0;entryX=0.028;entryY=0.441;entryDx=0;entryDy=0;entryPerimeter=0;" parent="ARf84FgYOcT5vbnDHxGA-6" source="ARf84FgYOcT5vbnDHxGA-12" target="ARf84FgYOcT5vbnDHxGA-1" edge="1">
          <mxGeometry width="50" height="50" relative="1" as="geometry">
            <mxPoint x="500" y="360" as="sourcePoint" />
            <mxPoint x="550" y="310" as="targetPoint" />
          </mxGeometry>
        </mxCell>
        <mxCell id="O7wRp2Qk0xSphGMLsmgk-57" value="ranks_queue" style="text;html=1;align=center;verticalAlign=middle;resizable=0;points=[];autosize=1;strokeColor=none;fillColor=none;rotation=-45;" parent="ARf84FgYOcT5vbnDHxGA-6" vertex="1">
          <mxGeometry x="190" y="126" width="90" height="30" as="geometry" />
        </mxCell>
        <mxCell id="O7wRp2Qk0xSphGMLsmgk-59" value="tokens_queue" style="text;html=1;align=center;verticalAlign=middle;resizable=0;points=[];autosize=1;strokeColor=none;fillColor=none;rotation=0;" parent="ARf84FgYOcT5vbnDHxGA-6" vertex="1">
          <mxGeometry x="205" y="209" width="100" height="30" as="geometry" />
        </mxCell>
        <mxCell id="O7wRp2Qk0xSphGMLsmgk-60" value="commands_queue" style="text;html=1;align=center;verticalAlign=middle;resizable=0;points=[];autosize=1;strokeColor=none;fillColor=none;rotation=30;" parent="ARf84FgYOcT5vbnDHxGA-6" vertex="1">
          <mxGeometry x="195" y="290" width="120" height="30" as="geometry" />
        </mxCell>
        <mxCell id="u6qkwt_XMD6DtzVuyal4-1" value="" style="endArrow=classic;startArrow=classic;html=1;rounded=0;exitX=1;exitY=0.75;exitDx=0;exitDy=0;entryX=0;entryY=0.75;entryDx=0;entryDy=0;" edge="1" parent="ARf84FgYOcT5vbnDHxGA-6" source="ARf84FgYOcT5vbnDHxGA-14" target="ARf84FgYOcT5vbnDHxGA-12">
          <mxGeometry width="50" height="50" relative="1" as="geometry">
            <mxPoint x="190" y="378" as="sourcePoint" />
            <mxPoint x="240" y="328" as="targetPoint" />
          </mxGeometry>
        </mxCell>
        <mxCell id="u6qkwt_XMD6DtzVuyal4-2" value="credentials_queue" style="text;html=1;align=center;verticalAlign=middle;resizable=0;points=[];autosize=1;strokeColor=none;fillColor=none;rotation=0;" vertex="1" parent="ARf84FgYOcT5vbnDHxGA-6">
          <mxGeometry x="195" y="239" width="120" height="30" as="geometry" />
        </mxCell>
        <mxCell id="O7wRp2Qk0xSphGMLsmgk-15" value="Current game" style="swimlane;whiteSpace=wrap;html=1;" parent="1" vertex="1">
          <mxGeometry x="495" y="-248" width="160" height="210" as="geometry" />
        </mxCell>
        <mxCell id="O7wRp2Qk0xSphGMLsmgk-26" value="Command resolver" style="rounded=1;whiteSpace=wrap;html=1;" parent="O7wRp2Qk0xSphGMLsmgk-15" vertex="1">
          <mxGeometry x="20" y="160" width="120" height="30" as="geometry" />
        </mxCell>
        <mxCell id="O7wRp2Qk0xSphGMLsmgk-27" value="Request resolver" style="rounded=1;whiteSpace=wrap;html=1;" parent="O7wRp2Qk0xSphGMLsmgk-15" vertex="1">
          <mxGeometry x="20" y="50" width="120" height="30" as="geometry" />
        </mxCell>
        <mxCell id="O7wRp2Qk0xSphGMLsmgk-36" value="" style="endArrow=classic;startArrow=classic;html=1;rounded=0;exitX=0.5;exitY=0;exitDx=0;exitDy=0;entryX=0.5;entryY=1;entryDx=0;entryDy=0;" parent="O7wRp2Qk0xSphGMLsmgk-15" source="O7wRp2Qk0xSphGMLsmgk-26" target="O7wRp2Qk0xSphGMLsmgk-27" edge="1">
          <mxGeometry width="50" height="50" relative="1" as="geometry">
            <mxPoint x="140" y="-2" as="sourcePoint" />
            <mxPoint x="190" y="-52" as="targetPoint" />
          </mxGeometry>
        </mxCell>
        <mxCell id="u6qkwt_XMD6DtzVuyal4-3" value="command_&lt;br&gt;queue" style="text;html=1;align=center;verticalAlign=middle;resizable=0;points=[];autosize=1;strokeColor=none;fillColor=none;rotation=-90;" vertex="1" parent="O7wRp2Qk0xSphGMLsmgk-15">
          <mxGeometry x="15" y="103" width="80" height="40" as="geometry" />
        </mxCell>
        <mxCell id="O7wRp2Qk0xSphGMLsmgk-16" value="" style="endArrow=classic;startArrow=classic;html=1;rounded=0;entryX=0.25;entryY=1;entryDx=0;entryDy=0;exitX=0.5;exitY=0;exitDx=0;exitDy=0;" parent="1" source="O7wRp2Qk0xSphGMLsmgk-15" target="ARf84FgYOcT5vbnDHxGA-13" edge="1">
          <mxGeometry width="50" height="50" relative="1" as="geometry">
            <mxPoint x="690" y="-208" as="sourcePoint" />
            <mxPoint x="740" y="-258" as="targetPoint" />
          </mxGeometry>
        </mxCell>
        <mxCell id="O7wRp2Qk0xSphGMLsmgk-17" value="" style="endArrow=classic;startArrow=classic;html=1;rounded=0;entryX=0.5;entryY=1;entryDx=0;entryDy=0;exitX=0.5;exitY=0;exitDx=0;exitDy=0;" parent="1" source="u6qkwt_XMD6DtzVuyal4-4" target="ARf84FgYOcT5vbnDHxGA-13" edge="1">
          <mxGeometry width="50" height="50" relative="1" as="geometry">
            <mxPoint x="775" y="-248" as="sourcePoint" />
            <mxPoint x="370" y="-408" as="targetPoint" />
          </mxGeometry>
        </mxCell>
        <mxCell id="O7wRp2Qk0xSphGMLsmgk-18" value="" style="endArrow=classic;startArrow=classic;html=1;rounded=0;entryX=0.75;entryY=1;entryDx=0;entryDy=0;exitX=0.5;exitY=0;exitDx=0;exitDy=0;" parent="1" source="u6qkwt_XMD6DtzVuyal4-9" target="ARf84FgYOcT5vbnDHxGA-13" edge="1">
          <mxGeometry width="50" height="50" relative="1" as="geometry">
            <mxPoint x="975" y="-248" as="sourcePoint" />
            <mxPoint x="740" y="-258" as="targetPoint" />
          </mxGeometry>
        </mxCell>
        <mxCell id="O7wRp2Qk0xSphGMLsmgk-20" value="Gamer" style="swimlane;whiteSpace=wrap;html=1;" parent="1" vertex="1">
          <mxGeometry x="20" y="-644" width="200" height="88" as="geometry" />
        </mxCell>
        <mxCell id="O7wRp2Qk0xSphGMLsmgk-21" value="Client" style="rounded=1;whiteSpace=wrap;html=1;" parent="O7wRp2Qk0xSphGMLsmgk-20" vertex="1">
          <mxGeometry x="40" y="48" width="120" height="22" as="geometry" />
        </mxCell>
        <mxCell id="O7wRp2Qk0xSphGMLsmgk-22" value="" style="endArrow=classic;startArrow=classic;html=1;rounded=0;exitX=1;exitY=0.5;exitDx=0;exitDy=0;entryX=0;entryY=0.5;entryDx=0;entryDy=0;" parent="1" source="O7wRp2Qk0xSphGMLsmgk-20" target="ARf84FgYOcT5vbnDHxGA-14" edge="1">
          <mxGeometry width="50" height="50" relative="1" as="geometry">
            <mxPoint x="260" y="-558" as="sourcePoint" />
            <mxPoint x="310" y="-608" as="targetPoint" />
          </mxGeometry>
        </mxCell>
        <mxCell id="O7wRp2Qk0xSphGMLsmgk-46" value="Gamer" style="swimlane;whiteSpace=wrap;html=1;" parent="1" vertex="1">
          <mxGeometry x="20" y="-536" width="200" height="88" as="geometry" />
        </mxCell>
        <mxCell id="O7wRp2Qk0xSphGMLsmgk-47" value="Client" style="rounded=1;whiteSpace=wrap;html=1;" parent="O7wRp2Qk0xSphGMLsmgk-46" vertex="1">
          <mxGeometry x="40" y="48" width="120" height="22" as="geometry" />
        </mxCell>
        <mxCell id="O7wRp2Qk0xSphGMLsmgk-48" value="Gamer" style="swimlane;whiteSpace=wrap;html=1;" parent="1" vertex="1">
          <mxGeometry x="20" y="-426" width="200" height="88" as="geometry" />
        </mxCell>
        <mxCell id="O7wRp2Qk0xSphGMLsmgk-49" value="Client" style="rounded=1;whiteSpace=wrap;html=1;" parent="O7wRp2Qk0xSphGMLsmgk-48" vertex="1">
          <mxGeometry x="40" y="48" width="120" height="22" as="geometry" />
        </mxCell>
        <mxCell id="O7wRp2Qk0xSphGMLsmgk-50" value="" style="endArrow=classic;startArrow=classic;html=1;rounded=0;exitX=1;exitY=0.5;exitDx=0;exitDy=0;entryX=0;entryY=0.5;entryDx=0;entryDy=0;" parent="1" source="O7wRp2Qk0xSphGMLsmgk-46" target="ARf84FgYOcT5vbnDHxGA-14" edge="1">
          <mxGeometry width="50" height="50" relative="1" as="geometry">
            <mxPoint x="350" y="-604" as="sourcePoint" />
            <mxPoint x="485" y="-548" as="targetPoint" />
          </mxGeometry>
        </mxCell>
        <mxCell id="O7wRp2Qk0xSphGMLsmgk-51" value="" style="endArrow=classic;startArrow=classic;html=1;rounded=0;exitX=1;exitY=0.5;exitDx=0;exitDy=0;entryX=0;entryY=0.5;entryDx=0;entryDy=0;" parent="1" source="O7wRp2Qk0xSphGMLsmgk-48" target="ARf84FgYOcT5vbnDHxGA-14" edge="1">
          <mxGeometry width="50" height="50" relative="1" as="geometry">
            <mxPoint x="350" y="-496" as="sourcePoint" />
            <mxPoint x="470" y="-550" as="targetPoint" />
          </mxGeometry>
        </mxCell>
        <mxCell id="O7wRp2Qk0xSphGMLsmgk-54" value="client_request_queue" style="text;html=1;align=center;verticalAlign=middle;resizable=0;points=[];autosize=1;strokeColor=none;fillColor=none;rotation=15;" parent="1" vertex="1">
          <mxGeometry x="270" y="-615" width="140" height="30" as="geometry" />
        </mxCell>
        <mxCell id="O7wRp2Qk0xSphGMLsmgk-55" value="client_request_queue" style="text;html=1;align=center;verticalAlign=middle;resizable=0;points=[];autosize=1;strokeColor=none;fillColor=none;rotation=-15;" parent="1" vertex="1">
          <mxGeometry x="250" y="-550" width="140" height="30" as="geometry" />
        </mxCell>
        <mxCell id="O7wRp2Qk0xSphGMLsmgk-56" value="client_request_queue" style="text;html=1;align=center;verticalAlign=middle;resizable=0;points=[];autosize=1;strokeColor=none;fillColor=none;rotation=-30;" parent="1" vertex="1">
          <mxGeometry x="240" y="-470" width="140" height="30" as="geometry" />
        </mxCell>
        <mxCell id="O7wRp2Qk0xSphGMLsmgk-61" value="command_queue" style="text;html=1;align=center;verticalAlign=middle;resizable=0;points=[];autosize=1;strokeColor=none;fillColor=none;rotation=-45;" parent="1" vertex="1">
          <mxGeometry x="550" y="-320" width="120" height="30" as="geometry" />
        </mxCell>
        <mxCell id="O7wRp2Qk0xSphGMLsmgk-62" value="command_queue" style="text;html=1;align=center;verticalAlign=middle;resizable=0;points=[];autosize=1;strokeColor=none;fillColor=none;rotation=-75;" parent="1" vertex="1">
          <mxGeometry x="724" y="-338" width="120" height="30" as="geometry" />
        </mxCell>
        <mxCell id="O7wRp2Qk0xSphGMLsmgk-63" value="command_queue" style="text;html=1;align=center;verticalAlign=middle;resizable=0;points=[];autosize=1;strokeColor=none;fillColor=none;rotation=60;" parent="1" vertex="1">
          <mxGeometry x="903" y="-323" width="120" height="30" as="geometry" />
        </mxCell>
        <mxCell id="u6qkwt_XMD6DtzVuyal4-4" value="Current game" style="swimlane;whiteSpace=wrap;html=1;" vertex="1" parent="1">
          <mxGeometry x="710" y="-248" width="160" height="210" as="geometry" />
        </mxCell>
        <mxCell id="u6qkwt_XMD6DtzVuyal4-5" value="Command resolver" style="rounded=1;whiteSpace=wrap;html=1;" vertex="1" parent="u6qkwt_XMD6DtzVuyal4-4">
          <mxGeometry x="20" y="160" width="120" height="30" as="geometry" />
        </mxCell>
        <mxCell id="u6qkwt_XMD6DtzVuyal4-6" value="Request resolver" style="rounded=1;whiteSpace=wrap;html=1;" vertex="1" parent="u6qkwt_XMD6DtzVuyal4-4">
          <mxGeometry x="20" y="50" width="120" height="30" as="geometry" />
        </mxCell>
        <mxCell id="u6qkwt_XMD6DtzVuyal4-7" value="" style="endArrow=classic;startArrow=classic;html=1;rounded=0;exitX=0.5;exitY=0;exitDx=0;exitDy=0;entryX=0.5;entryY=1;entryDx=0;entryDy=0;" edge="1" parent="u6qkwt_XMD6DtzVuyal4-4" source="u6qkwt_XMD6DtzVuyal4-5" target="u6qkwt_XMD6DtzVuyal4-6">
          <mxGeometry width="50" height="50" relative="1" as="geometry">
            <mxPoint x="140" y="-2" as="sourcePoint" />
            <mxPoint x="190" y="-52" as="targetPoint" />
          </mxGeometry>
        </mxCell>
        <mxCell id="u6qkwt_XMD6DtzVuyal4-8" value="command_&lt;br&gt;queue" style="text;html=1;align=center;verticalAlign=middle;resizable=0;points=[];autosize=1;strokeColor=none;fillColor=none;rotation=-90;" vertex="1" parent="u6qkwt_XMD6DtzVuyal4-4">
          <mxGeometry x="15" y="103" width="80" height="40" as="geometry" />
        </mxCell>
        <mxCell id="u6qkwt_XMD6DtzVuyal4-9" value="Current game" style="swimlane;whiteSpace=wrap;html=1;" vertex="1" parent="1">
          <mxGeometry x="920" y="-240" width="160" height="210" as="geometry" />
        </mxCell>
        <mxCell id="u6qkwt_XMD6DtzVuyal4-10" value="Command resolver" style="rounded=1;whiteSpace=wrap;html=1;" vertex="1" parent="u6qkwt_XMD6DtzVuyal4-9">
          <mxGeometry x="20" y="160" width="120" height="30" as="geometry" />
        </mxCell>
        <mxCell id="u6qkwt_XMD6DtzVuyal4-11" value="Request resolver" style="rounded=1;whiteSpace=wrap;html=1;" vertex="1" parent="u6qkwt_XMD6DtzVuyal4-9">
          <mxGeometry x="20" y="50" width="120" height="30" as="geometry" />
        </mxCell>
        <mxCell id="u6qkwt_XMD6DtzVuyal4-12" value="" style="endArrow=classic;startArrow=classic;html=1;rounded=0;exitX=0.5;exitY=0;exitDx=0;exitDy=0;entryX=0.5;entryY=1;entryDx=0;entryDy=0;" edge="1" parent="u6qkwt_XMD6DtzVuyal4-9" source="u6qkwt_XMD6DtzVuyal4-10" target="u6qkwt_XMD6DtzVuyal4-11">
          <mxGeometry width="50" height="50" relative="1" as="geometry">
            <mxPoint x="140" y="-2" as="sourcePoint" />
            <mxPoint x="190" y="-52" as="targetPoint" />
          </mxGeometry>
        </mxCell>
        <mxCell id="u6qkwt_XMD6DtzVuyal4-13" value="command_&lt;br&gt;queue" style="text;html=1;align=center;verticalAlign=middle;resizable=0;points=[];autosize=1;strokeColor=none;fillColor=none;rotation=-90;" vertex="1" parent="u6qkwt_XMD6DtzVuyal4-9">
          <mxGeometry x="15" y="103" width="80" height="40" as="geometry" />
        </mxCell>
      </root>
    </mxGraphModel>
  </diagram>
</mxfile>
